<?xml version="1.0" encoding="UTF-8" standalone="no"?>
<!-- Creator: CorelDRAW X7 -->

<svg
   xmlns:dc="http://purl.org/dc/elements/1.1/"
   xmlns:cc="http://creativecommons.org/ns#"
   xmlns:rdf="http://www.w3.org/1999/02/22-rdf-syntax-ns#"
   xmlns:svg="http://www.w3.org/2000/svg"
   xmlns="http://www.w3.org/2000/svg"
   xmlns:sodipodi="http://sodipodi.sourceforge.net/DTD/sodipodi-0.dtd"
   xmlns:inkscape="http://www.inkscape.org/namespaces/inkscape"
   xml:space="preserve"
   version="1.1"
   style="shape-rendering:geometricPrecision; text-rendering:geometricPrecision; image-rendering:optimizeQuality; fill-rule:evenodd; clip-rule:evenodd"
   viewBox="0 0 3366 4749"
   id="svg3454"
   inkscape:version="0.91 r13725"
   sodipodi:docname="Map-Pointer.svg"><sodipodi:namedview
     pagecolor="#ffffff"
     bordercolor="#666666"
     borderopacity="1"
     objecttolerance="10"
     gridtolerance="10"
     guidetolerance="10"
     inkscape:pageopacity="0"
     inkscape:pageshadow="2"
     inkscape:window-width="1535"
     inkscape:window-height="876"
     id="namedview3502"
     showgrid="false"
     inkscape:zoom="0.099389345"
     inkscape:cx="122.01408"
     inkscape:cy="1920.8381"
     inkscape:window-x="65"
     inkscape:window-y="24"
     inkscape:window-maximized="1"
     inkscape:current-layer="svg3454" /><defs
     id="defs3456"><style
       type="text/css"
       id="style3458">
   
    .fil2 {fill:#E6E6E6}
    .fil1 {fill:white}
    .fil0 {fill:url(#id4)}
    .fil3 {fill:url(#id5)}
   
  </style><mask
       id="id0"><linearGradient
         id="id1"
         gradientUnits="userSpaceOnUse"
         x1="1680.31"
         y1="435.362"
         x2="1680.31"
         y2="1639.57"><stop
           offset="0"
           style="stop-opacity:1; stop-color:white"
           id="stop3462" /><stop
           offset="1"
           style="stop-opacity:0; stop-color:white"
           id="stop3464" /></linearGradient><rect
         style="fill:url(#id1)"
         x="74"
         y="63"
         width="3213"
         height="1950"
         id="rect3466" /></mask><mask
       id="id2"><linearGradient
         id="id3"
         gradientUnits="userSpaceOnUse"
         x1="1683.09"
         y1="773.806"
         x2="1683.09"
         y2="1471.39"><stop
           offset="0"
           style="stop-opacity:1; stop-color:white"
           id="stop3470" /><stop
           offset="1"
           style="stop-opacity:0; stop-color:white"
           id="stop3472" /></linearGradient><rect
         style="fill:url(#id3)"
         x="861"
         y="556"
         width="1645"
         height="1133"
         id="rect3474" /></mask><linearGradient
       id="id4"
       gradientUnits="userSpaceOnUse"
       x1="1723.29"
       y1="447.685"
       x2="1642.93"
       y2="4301.68"><stop
         offset="0"
         style="stop-opacity:1; stop-color:#73B4FA"
         id="stop3477" /><stop
         offset="1"
         style="stop-opacity:1; stop-color:#58A2F0"
         id="stop3479" /></linearGradient><linearGradient
       id="id5"
       gradientUnits="userSpaceOnUse"
       x1="486.006"
       y1="2331.72"
       x2="2880.19"
       y2="1010.44"><stop
         offset="0"
         style="stop-opacity:1; stop-color:#9CBDFF"
         id="stop3482" /><stop
         offset="0.670588"
         style="stop-opacity:1; stop-color:#62A1F4"
         id="stop3484" /><stop
         offset="1"
         style="stop-opacity:1; stop-color:#2785E9"
         id="stop3486" /></linearGradient></defs><g
     id="g3807"><g
       id="Layer_x0020_1"><metadata
         id="CorelCorpID_0Corel-Layer" /><path
         id="path3490"
         d="M1683 4749c16,0 -1743,-2025 -1681,-3252 99,-1996 3263,-1996 3363,0 61,1227 -1698,3252 -1682,3252z"
         class="fil0" /><path
         mask="url(#id0)"
         id="path3492"
         d="M88 1988c0,0 1606,-941 3140,21 562,-2380 -3382,-2785 -3140,-21z"
         style="mask:url(#id0)"
         class="fil1" /><circle
         id="circle3494"
         r="1167"
         cy="1671"
         cx="1683"
         class="fil2" /><path
         id="path3496"
         d="M1683 536c627,0 1135,508 1135,1135 0,627 -508,1135 -1135,1135 -627,0 -1135,-508 -1135,-1135 0,-627 508,-1135 1135,-1135zm0 -123c695,0 1258,563 1258,1258 0,695 -563,1258 -1258,1258 -695,0 -1258,-563 -1258,-1258 0,-695 563,-1258 1258,-1258z"
         class="fil3" /><path
         mask="url(#id2)"
         id="path3498"
         d="M1683 560c452,0 819,252 819,563 0,310 -367,562 -819,562 -452,0 -818,-252 -818,-562 0,-311 366,-563 818,-563z"
         style="mask:url(#id2)"
         class="fil1" /></g></g><metadata
     id="metadata3500"><rdf:RDF><cc:Work><dc:format>image/svg+xml</dc:format><dc:type
           rdf:resource="http://purl.org/dc/dcmitype/StillImage" /><cc:license
           rdf:resource="http://creativecommons.org/licenses/publicdomain/" /><dc:publisher><cc:Agent
             rdf:about="http://openclipart.org/"><dc:title>Openclipart</dc:title></cc:Agent></dc:publisher></cc:Work><cc:License
         rdf:about="http://creativecommons.org/licenses/publicdomain/"><cc:permits
           rdf:resource="http://creativecommons.org/ns#Reproduction" /><cc:permits
           rdf:resource="http://creativecommons.org/ns#Distribution" /><cc:permits
           rdf:resource="http://creativecommons.org/ns#DerivativeWorks" /></cc:License></rdf:RDF></metadata><path
     inkscape:connector-curvature="0"
     id="path2115"
     style="fill:#5aa3f1;fill-opacity:1"
     d="m 1690.4859,698.06528 c -163.1619,0 -388.4599,46.61422 -481.7046,85.45941 -93.2122,38.84518 -155.3645,77.69037 -174.7851,174.80131 l -69.91725,538.3614 0,741.8073 120.41395,0 0,116.3532 c 0,141.8447 207.5715,141.8447 207.5715,0 l 0,-116.3532 383.2239,0 1.2158,0 398.381,0 0,116.3532 c 0,141.8447 207.5796,141.8447 207.5796,0 l 0,-116.3532 120.4059,0 0,-741.8073 -69.9092,-538.3614 c -19.4125,-97.11499 -81.581,-135.96018 -174.7932,-174.80536 -93.2122,-38.84519 -318.5427,-85.45941 -481.6641,-85.45941" /><g
     transform="matrix(4.0527058,0,0,4.0527058,964.07895,698.06528)"
     id="g2117"><g
       id="g2119"><g
         id="g2121"><path
           inkscape:connector-curvature="0"
           id="path2123"
           style="fill:#ffffff"
           d="m 299.68,322.72 c 13.57,0 24.57,-11 24.57,-24.57 0,-13.57 -11,-24.57 -24.57,-24.57 -13.57,0 -24.57,11 -24.57,24.57 0,13.57 11,24.57 24.57,24.57 z" /></g><g
         id="g2127"><path
           inkscape:connector-curvature="0"
           id="path2129"
           style="fill:#ffffff"
           d="m 55.342,322.72 c -13.568,0 -24.568,-11 -24.568,-24.57 0,-13.57 11,-24.57 24.568,-24.57 13.568,0 24.569,11 24.569,24.57 0,13.57 -11.001,24.57 -24.569,24.57 z" /></g></g><path
       inkscape:connector-curvature="0"
       id="path2133"
       style="fill:#ffffff"
       d="m 175.61,55.113 -71.13,0 c -14.382,0 -14.382,-21.566 0,-21.566 l 71.31,0 74.76,0 c 14.38,0 14.38,21.566 0,21.566 l -74.94,0 z" /><path
       inkscape:connector-curvature="0"
       id="path2135"
       style="fill:#ffffff"
       d="m 175.61,76.887 -109.9,0 c -15.183,0 -19.151,7.717 -20.995,19.423 l -13.428,96.35 c -1.252,9.23 1.419,18.4 14.178,18.4 l 130.32,0 133.78,0 c 12.76,0 15.43,-9.17 14.18,-18.4 l -13.43,-96.35 c -1.85,-11.706 -5.81,-19.423 -21,-19.423 l -113.7,0 z" /></g></svg>